<svg version="1.1"
     baseProfile="full"
     width="128" height="128"
     xmlns="http://www.w3.org/2000/svg">

 <g transform="translate(0.000000,118.000000) scale(0.100000,-0.100000)"
fill="#E9148B" stroke="none">
<path d="M10 975 l0 -205 110 0 110 0 0 40 c0 22 4 40 8 40 4 0 33 -9 65 -20
43 -15 70 -19 110 -14 45 5 63 2 126 -25 40 -17 83 -31 95 -31 56 0 92 68 62
115 -9 14 -44 39 -77 56 -34 16 -59 32 -57 34 2 3 22 8 44 13 36 9 47 5 161
-54 67 -35 131 -64 143 -64 22 0 70 41 70 60 0 21 -68 80 -179 155 l-114 77
-181 -4 c-166 -3 -184 -5 -221 -26 -22 -12 -43 -22 -47 -22 -4 0 -8 17 -10 38
l-3 37 -107 3 -108 3 0 -206z m188 -2 l2 -163 -80 0 -80 0 0 158 c0 87 3 162
7 166 4 4 39 5 78 4 l70 -3 3 -162z m602 56 c128 -87 145 -102 135 -119 -12
-20 -42 -10 -156 51 l-114 62 -79 -12 c-86 -14 -126 -26 -126 -39 0 -5 45 -29
100 -55 100 -46 122 -66 103 -96 -16 -25 -46 -24 -106 3 -44 21 -72 26 -134
26 -57 1 -93 7 -133 23 l-55 22 0 80 0 80 55 27 c53 26 61 27 223 27 l168 1
119 -81z"/>
<path d="M813 780 c-30 -12 -55 -53 -55 -92 0 -37 47 -207 61 -221 9 -9 176
32 226 55 13 6 32 27 41 46 32 68 -16 146 -91 146 -25 0 -36 6 -48 28 -24 43
-82 59 -134 38z m82 -32 c15 -7 29 -24 34 -42 6 -23 13 -30 27 -28 52 7 69 3
92 -23 27 -32 24 -69 -7 -96 -25 -21 -189 -65 -201 -53 -13 14 -50 148 -50
182 0 34 32 72 61 72 10 0 30 -5 44 -12z"/>
<path d="M599 391 c-16 -16 -29 -36 -29 -45 0 -42 22 -67 87 -100 69 -35 70
-39 5 -50 -28 -5 -53 4 -146 54 -142 76 -187 79 -209 17 -10 -27 43 -79 166
-162 l112 -75 178 0 c170 0 180 1 227 25 27 14 52 25 55 25 3 0 5 -18 5 -40
l0 -40 110 0 110 0 -2 203 -3 202 -105 0 -105 0 -3 -37 c-4 -43 -13 -46 -69
-23 -21 9 -67 15 -113 15 -66 0 -88 5 -142 30 -78 37 -92 37 -129 1z m133 -42
c61 -27 78 -30 127 -25 44 5 70 1 121 -17 l65 -23 0 -79 0 -80 -50 -27 c-49
-27 -54 -28 -225 -28 l-174 0 -107 71 c-115 76 -155 111 -144 128 11 19 30 12
157 -53 l123 -64 90 17 c123 23 123 36 0 91 -99 46 -123 71 -95 105 18 21 32
19 112 -16z m506 -146 l2 -163 -80 0 -81 0 5 163 c3 89 5 163 6 165 0 2 33 2
73 0 l72 -3 3 -162z"/>
</g>

</svg>

